<?xml version="1.0" encoding="UTF-8"?>
<svg width="449px" height="284px" viewBox="0 0 449 284" version="1.1" xmlns="http://www.w3.org/2000/svg" xmlns:xlink="http://www.w3.org/1999/xlink">
    <!-- Generator: Sketch 62 (91390) - https://sketch.com -->
    <title>Group</title>
    <desc>Created with Sketch.</desc>
    <g id="Page-1" stroke="none" stroke-width="1" fill="none" fill-rule="evenodd">
        <g id="Macbook-Pro-(Early-2015)" transform="translate(-228.000000, -1064.000000)">
            <g id="Group" transform="translate(230.000000, 1066.000000)">
                <rect id="Rectangle" stroke="#011627" stroke-width="3" fill="#F6F7F8" x="0" y="0" width="445" height="280" rx="10"></rect>
                <path d="M59.604,69.6 L59.604,68.06 L52.464,63.328 L59.604,58.596 L59.604,57.056 L50.98,62.628 L50.98,64.028 L59.604,69.6 Z M68.3236667,71.14 C71.0116667,71.14 72.7756667,69.6 73.4756667,67.696 L73.5036667,67.696 C73.4756667,68.508 73.5876667,69.992 73.6996667,71.056 L74.9316667,71 L74.9316667,51.288 L73.2516667,51.288 L73.2516667,60.472 C72.4396667,58.904 70.7876667,57.728 68.4076667,57.728 C64.6836667,57.728 62.1636667,60.416 62.1636667,64.42 C62.1636667,68.452 64.6836667,71.14 68.3236667,71.14 Z M68.6036667,69.684 C65.7476667,69.684 63.8996667,67.584 63.8996667,64.42 C63.8996667,61.284 65.7196667,59.184 68.4916667,59.184 C71.7116667,59.184 73.2516667,61.816 73.2516667,63.832 L73.2516667,65.008 C73.2516667,67.024 71.7116667,69.684 68.6036667,69.684 Z M79.8713333,54.9 C80.5993333,54.9 81.2153333,54.34 81.2153333,53.612 C81.2153333,52.856 80.5993333,52.296 79.8713333,52.296 C79.1433333,52.296 78.5553333,52.856 78.5553333,53.612 C78.5553333,54.34 79.1433333,54.9 79.8713333,54.9 Z M80.6833333,71 L80.6833333,57.84 L78.9753333,57.896 L78.9753333,71 L80.6833333,71 Z M90.495,71 L95.955,57.896 L94.219,57.896 L89.907,68.34 C89.767,68.704 89.711,68.9 89.627,69.292 L89.571,69.292 C89.487,68.928 89.431,68.76 89.263,68.34 L85.007,57.896 L83.103,57.896 L88.563,71 L90.495,71 Z M105.134333,54.9 C105.862333,54.9 106.478333,54.34 106.478333,53.612 C106.478333,52.856 105.862333,52.296 105.134333,52.296 C104.406333,52.296 103.818333,52.856 103.818333,53.612 C103.818333,54.34 104.406333,54.9 105.134333,54.9 Z M105.946333,71 L105.946333,57.84 L104.238333,57.896 L104.238333,71 L105.946333,71 Z M115.254,71.14 C117.942,71.14 119.706,69.6 120.406,67.696 L120.434,67.696 C120.406,68.508 120.518,69.992 120.63,71.056 L121.862,71 L121.862,51.288 L120.182,51.288 L120.182,60.472 C119.37,58.904 117.718,57.728 115.338,57.728 C111.614,57.728 109.094,60.416 109.094,64.42 C109.094,68.452 111.614,71.14 115.254,71.14 Z M115.534,69.684 C112.678,69.684 110.83,67.584 110.83,64.42 C110.83,61.284 112.65,59.184 115.422,59.184 C118.642,59.184 120.182,61.816 120.182,63.832 L120.182,65.008 C120.182,67.024 118.642,69.684 115.534,69.684 Z M136.405667,61.956 L136.405667,60.668 L125.681667,60.668 L125.681667,61.956 L136.405667,61.956 Z M136.405667,67.304 L136.405667,66.016 L125.681667,66.016 L125.681667,67.304 L136.405667,67.304 Z M141.009333,58.652 C141.821333,58.652 142.353333,58.148 142.353333,57.42 C142.353333,56.692 141.737333,56.216 141.009333,56.216 C141.009333,54.704 142.633333,53.472 142.633333,53.472 L141.793333,52.464 C141.793333,52.464 139.497333,54.004 139.497333,56.916 C139.497333,57.98 140.113333,58.652 141.009333,58.652 Z M144.985333,58.652 C145.797333,58.652 146.329333,58.148 146.329333,57.42 C146.329333,56.692 145.713333,56.216 144.985333,56.216 C144.985333,54.704 146.609333,53.472 146.609333,53.472 L145.769333,52.464 C145.769333,52.464 143.473333,54.004 143.473333,56.916 C143.473333,57.98 144.089333,58.652 144.985333,58.652 Z M151.325,76.712 L151.325,68.368 C152.165,69.936 153.873,71.14 156.169,71.14 C159.893,71.14 162.385,68.48 162.385,64.476 C162.385,60.444 159.893,57.756 156.253,57.756 C153.453,57.756 151.773,59.324 151.101,61.172 L151.073,61.172 C151.073,60.36 150.961,58.848 150.821,57.84 L149.617,57.896 L149.617,76.712 L151.325,76.712 Z M156.057,69.712 C152.865,69.712 151.325,67.08 151.325,65.064 L151.325,63.888 C151.325,61.872 152.837,59.184 155.973,59.184 C158.829,59.184 160.677,61.312 160.677,64.476 C160.677,67.612 158.857,69.712 156.057,69.712 Z M176.004667,71.14 C176.536667,71.14 177.012667,71 177.040667,71 L176.956667,69.572 C176.844667,69.6 176.648667,69.628 176.480667,69.628 C175.864667,69.628 175.612667,69.32 175.612667,68.564 L175.612667,62.6 C175.612667,59.632 173.568667,57.756 170.208667,57.756 C167.072667,57.756 165.028667,59.408 165.028667,61.788 C165.028667,62.432 165.196667,62.908 165.196667,62.908 L166.792667,62.628 C166.736667,62.516 166.652667,62.264 166.652667,61.872 C166.652667,60.192 168.052667,59.184 170.180667,59.184 C172.560667,59.184 173.904667,60.528 173.904667,62.628 L173.904667,63.636 L173.092667,63.664 C167.716667,63.72 164.692667,64.728 164.692667,67.668 C164.692667,69.768 166.232667,71.14 169.004667,71.14 C172.112667,71.14 173.484667,69.488 173.960667,68.508 L174.016667,68.508 L174.016667,69.18 C174.016667,70.58 174.856667,71.14 176.004667,71.14 Z M169.368667,69.712 C167.380667,69.712 166.428667,68.9 166.428667,67.612 C166.428667,65.68 168.696667,64.952 173.092667,64.896 L173.904667,64.868 L173.904667,66.576 C173.904667,67.416 172.616667,69.712 169.368667,69.712 Z M184.948333,76.852 C189.512333,76.852 191.584333,75.2 191.584333,72.82 C191.584333,70.524 189.764333,69.208 186.740333,69.208 L183.884333,69.208 C181.952333,69.208 180.776333,68.956 180.776333,67.864 C180.776333,67.192 181.392333,66.772 182.372333,66.632 C183.100333,66.94 183.940333,67.108 184.892333,67.108 C188.112333,67.108 190.240333,65.232 190.240333,62.432 C190.240333,61.284 189.876333,60.304 189.260333,59.548 C190.100333,59.436 191.528333,58.484 191.528333,56.328 L190.044333,56.02 C190.044333,57.42 189.624333,58.512 188.560333,58.876 C187.636333,58.148 186.376333,57.756 184.864333,57.756 C181.672333,57.756 179.544333,59.632 179.544333,62.432 C179.544333,63.888 180.132333,65.092 181.140333,65.932 C180.132333,66.184 179.236333,66.94 179.236333,68.06 C179.236333,69.152 179.824333,69.824 180.748333,70.216 C179.236333,70.748 178.340333,71.756 178.340333,73.184 C178.340333,75.452 180.636333,76.852 184.948333,76.852 Z M184.864333,65.708 C182.680333,65.708 181.252333,64.392 181.252333,62.432 C181.252333,60.472 182.680333,59.156 184.892333,59.156 C187.076333,59.156 188.532333,60.472 188.532333,62.432 C188.532333,64.392 187.076333,65.708 184.864333,65.708 Z M184.948333,75.396 C181.672333,75.396 180.020333,74.556 180.020333,72.96 C180.020333,71.644 181.084333,70.664 183.436333,70.664 L186.460333,70.664 C188.728333,70.664 189.904333,71.308 189.904333,72.82 C189.904333,74.584 188.252333,75.396 184.948333,75.396 Z M199.604,71.14 C201.648,71.14 203.468,70.468 204.672,68.984 L203.608,68.004 C202.88,68.9 201.62,69.712 199.716,69.712 C196.748,69.712 194.872,67.78 194.732,64.812 L204.868,64.812 C204.868,64.812 204.952,64.392 204.952,63.692 C204.952,60.22 202.796,57.756 199.268,57.756 C195.572,57.756 192.996,60.444 192.996,64.476 C192.996,68.48 195.544,71.14 199.604,71.14 Z M203.216,63.552 L194.788,63.552 C195.096,60.92 196.86,59.184 199.268,59.184 C201.648,59.184 203.216,60.808 203.216,63.44 L203.216,63.552 Z M209.723667,76.712 L209.723667,68.368 C210.563667,69.936 212.271667,71.14 214.567667,71.14 C218.291667,71.14 220.783667,68.48 220.783667,64.476 C220.783667,60.444 218.291667,57.756 214.651667,57.756 C211.851667,57.756 210.171667,59.324 209.499667,61.172 L209.471667,61.172 C209.471667,60.36 209.359667,58.848 209.219667,57.84 L208.015667,57.896 L208.015667,76.712 L209.723667,76.712 Z M214.455667,69.712 C211.263667,69.712 209.723667,67.08 209.723667,65.064 L209.723667,63.888 C209.723667,61.872 211.235667,59.184 214.371667,59.184 C217.227667,59.184 219.075667,61.312 219.075667,64.476 C219.075667,67.612 217.255667,69.712 214.455667,69.712 Z M224.883333,54.9 C225.611333,54.9 226.227333,54.34 226.227333,53.612 C226.227333,52.856 225.611333,52.296 224.883333,52.296 C224.155333,52.296 223.567333,52.856 223.567333,53.612 C223.567333,54.34 224.155333,54.9 224.883333,54.9 Z M225.695333,71 L225.695333,57.84 L223.987333,57.896 L223.987333,71 L225.695333,71 Z M231.419,71 L231.419,51.232 L229.739,51.232 L229.739,71 L231.419,71 Z M236.386667,54.9 C237.114667,54.9 237.730667,54.34 237.730667,53.612 C237.730667,52.856 237.114667,52.296 236.386667,52.296 C235.658667,52.296 235.070667,52.856 235.070667,53.612 C235.070667,54.34 235.658667,54.9 236.386667,54.9 Z M237.198667,71 L237.198667,57.84 L235.490667,57.896 L235.490667,71 L237.198667,71 Z M242.894333,71 L242.894333,63.832 C242.894333,61.872 244.406333,59.184 247.402333,59.184 C249.670333,59.184 251.042333,60.724 251.042333,62.964 L251.042333,71 L252.750333,71 L252.750333,62.964 C252.750333,59.884 250.790333,57.756 247.654333,57.756 C245.022333,57.756 243.398333,59.38 242.698333,61.172 L242.642333,61.172 C242.642333,60.332 242.558333,58.932 242.390333,57.84 L241.186333,57.896 L241.186333,71 L242.894333,71 Z M261.694,76.852 C266.258,76.852 268.33,75.2 268.33,72.82 C268.33,70.524 266.51,69.208 263.486,69.208 L260.63,69.208 C258.698,69.208 257.522,68.956 257.522,67.864 C257.522,67.192 258.138,66.772 259.118,66.632 C259.846,66.94 260.686,67.108 261.638,67.108 C264.858,67.108 266.986,65.232 266.986,62.432 C266.986,61.284 266.622,60.304 266.006,59.548 C266.846,59.436 268.274,58.484 268.274,56.328 L266.79,56.02 C266.79,57.42 266.37,58.512 265.306,58.876 C264.382,58.148 263.122,57.756 261.61,57.756 C258.418,57.756 256.29,59.632 256.29,62.432 C256.29,63.888 256.878,65.092 257.886,65.932 C256.878,66.184 255.982,66.94 255.982,68.06 C255.982,69.152 256.57,69.824 257.494,70.216 C255.982,70.748 255.086,71.756 255.086,73.184 C255.086,75.452 257.382,76.852 261.694,76.852 Z M261.61,65.708 C259.426,65.708 257.998,64.392 257.998,62.432 C257.998,60.472 259.426,59.156 261.638,59.156 C263.822,59.156 265.278,60.472 265.278,62.432 C265.278,64.392 263.822,65.708 261.61,65.708 Z M261.694,75.396 C258.418,75.396 256.766,74.556 256.766,72.96 C256.766,71.644 257.83,70.664 260.182,70.664 L263.206,70.664 C265.474,70.664 266.65,71.308 266.65,72.82 C266.65,74.584 264.998,75.396 261.694,75.396 Z M270.889667,58.624 C270.889667,58.624 273.185667,57.084 273.185667,54.172 C273.185667,53.108 272.569667,52.436 271.701667,52.436 C270.861667,52.436 270.329667,52.94 270.329667,53.668 C270.329667,54.396 270.945667,54.872 271.673667,54.872 C271.673667,56.384 270.049667,57.616 270.049667,57.616 L270.889667,58.624 Z M274.865667,58.624 C274.865667,58.624 277.189667,57.084 277.189667,54.172 C277.189667,53.108 276.545667,52.436 275.677667,52.436 C274.837667,52.436 274.305667,52.94 274.305667,53.668 C274.305667,54.396 274.921667,54.872 275.677667,54.872 C275.649667,56.384 274.025667,57.616 274.025667,57.616 L274.865667,58.624 Z M279.721333,69.6 L288.373333,64.028 L288.373333,62.628 L279.721333,57.056 L279.721333,58.596 L286.861333,63.328 L279.721333,68.06 L279.721333,69.6 Z M87.604,109.6 L87.604,108.06 L80.464,103.328 L87.604,98.596 L87.604,97.056 L78.98,102.628 L78.98,104.028 L87.604,109.6 Z M96.3236667,111.14 C99.0116667,111.14 100.775667,109.6 101.475667,107.696 L101.503667,107.696 C101.475667,108.508 101.587667,109.992 101.699667,111.056 L102.931667,111 L102.931667,91.288 L101.251667,91.288 L101.251667,100.472 C100.439667,98.904 98.7876667,97.728 96.4076667,97.728 C92.6836667,97.728 90.1636667,100.416 90.1636667,104.42 C90.1636667,108.452 92.6836667,111.14 96.3236667,111.14 Z M96.6036667,109.684 C93.7476667,109.684 91.8996667,107.584 91.8996667,104.42 C91.8996667,101.284 93.7196667,99.184 96.4916667,99.184 C99.7116667,99.184 101.251667,101.816 101.251667,103.832 L101.251667,105.008 C101.251667,107.024 99.7116667,109.684 96.6036667,109.684 Z M107.871333,94.9 C108.599333,94.9 109.215333,94.34 109.215333,93.612 C109.215333,92.856 108.599333,92.296 107.871333,92.296 C107.143333,92.296 106.555333,92.856 106.555333,93.612 C106.555333,94.34 107.143333,94.9 107.871333,94.9 Z M108.683333,111 L108.683333,97.84 L106.975333,97.896 L106.975333,111 L108.683333,111 Z M118.495,111 L123.955,97.896 L122.219,97.896 L117.907,108.34 C117.767,108.704 117.711,108.9 117.627,109.292 L117.571,109.292 C117.487,108.928 117.431,108.76 117.263,108.34 L113.007,97.896 L111.103,97.896 L116.563,111 L118.495,111 Z M137.922333,111.14 C140.078333,111.14 141.898333,110.44 143.074333,109.068 L142.066333,108.004 C141.394333,108.76 140.190333,109.712 137.978333,109.712 C134.898333,109.712 133.050333,107.612 133.050333,104.476 C133.050333,101.284 134.954333,99.184 137.754333,99.184 C140.022333,99.184 141.394333,100.556 141.394333,102.432 C141.394333,102.768 141.366333,103.048 141.338333,103.132 L142.934333,103.02 C142.934333,103.02 143.018333,102.656 143.018333,102.18 C143.018333,99.66 140.974333,97.756 137.726333,97.756 C133.946333,97.756 131.342333,100.5 131.342333,104.504 C131.342333,108.452 133.918333,111.14 137.922333,111.14 Z M147.874,111 L147.874,91.232 L146.194,91.232 L146.194,111 L147.874,111 Z M162.361667,111.14 C162.893667,111.14 163.369667,111 163.397667,111 L163.313667,109.572 C163.201667,109.6 163.005667,109.628 162.837667,109.628 C162.221667,109.628 161.969667,109.32 161.969667,108.564 L161.969667,102.6 C161.969667,99.632 159.925667,97.756 156.565667,97.756 C153.429667,97.756 151.385667,99.408 151.385667,101.788 C151.385667,102.432 151.553667,102.908 151.553667,102.908 L153.149667,102.628 C153.093667,102.516 153.009667,102.264 153.009667,101.872 C153.009667,100.192 154.409667,99.184 156.537667,99.184 C158.917667,99.184 160.261667,100.528 160.261667,102.628 L160.261667,103.636 L159.449667,103.664 C154.073667,103.72 151.049667,104.728 151.049667,107.668 C151.049667,109.768 152.589667,111.14 155.361667,111.14 C158.469667,111.14 159.841667,109.488 160.317667,108.508 L160.373667,108.508 L160.373667,109.18 C160.373667,110.58 161.213667,111.14 162.361667,111.14 Z M155.725667,109.712 C153.737667,109.712 152.785667,108.9 152.785667,107.612 C152.785667,105.68 155.053667,104.952 159.449667,104.896 L160.261667,104.868 L160.261667,106.576 C160.261667,107.416 158.973667,109.712 155.725667,109.712 Z M170.409333,111.14 C173.517333,111.14 175.561333,109.796 175.533333,107.528 C175.477333,102.656 167.329333,104.896 167.329333,101.424 C167.329333,100.08 168.477333,99.184 170.381333,99.184 C172.285333,99.184 173.685333,100.08 173.685333,101.648 C173.685333,101.928 173.629333,102.18 173.601333,102.32 L175.169333,102.18 C175.169333,102.18 175.253333,101.788 175.253333,101.34 C175.253333,99.184 173.265333,97.756 170.437333,97.756 C167.525333,97.756 165.593333,99.296 165.593333,101.396 C165.593333,106.156 173.825333,104.252 173.825333,107.528 C173.825333,108.844 172.621333,109.712 170.409333,109.712 C167.973333,109.712 166.433333,108.424 166.069333,108.088 L165.005333,109.208 C165.509333,109.628 167.105333,111.14 170.409333,111.14 Z M182.881,111.14 C185.989,111.14 188.033,109.796 188.005,107.528 C187.949,102.656 179.801,104.896 179.801,101.424 C179.801,100.08 180.949,99.184 182.853,99.184 C184.757,99.184 186.157,100.08 186.157,101.648 C186.157,101.928 186.101,102.18 186.073,102.32 L187.641,102.18 L187.649736,102.135648 C187.67124,102.02096 187.725,101.6984 187.725,101.34 C187.725,99.184 185.737,97.756 182.909,97.756 C179.997,97.756 178.065,99.296 178.065,101.396 C178.065,106.156 186.297,104.252 186.297,107.528 C186.297,108.844 185.093,109.712 182.881,109.712 C180.445,109.712 178.905,108.424 178.541,108.088 L177.477,109.208 C177.981,109.628 179.577,111.14 182.881,111.14 Z M201.680667,101.956 L201.680667,100.668 L190.956667,100.668 L190.956667,101.956 L201.680667,101.956 Z M201.680667,107.304 L201.680667,106.016 L190.956667,106.016 L190.956667,107.304 L201.680667,107.304 Z M206.284333,98.652 C207.096333,98.652 207.628333,98.148 207.628333,97.42 C207.628333,96.692 207.012333,96.216 206.284333,96.216 C206.284333,94.704 207.908333,93.472 207.908333,93.472 L207.068333,92.464 C207.068333,92.464 204.772333,94.004 204.772333,96.916 C204.772333,97.98 205.388333,98.652 206.284333,98.652 Z M210.260333,98.652 C211.072333,98.652 211.604333,98.148 211.604333,97.42 C211.604333,96.692 210.988333,96.216 210.260333,96.216 C210.260333,94.704 211.884333,93.472 211.884333,93.472 L211.044333,92.464 C211.044333,92.464 208.748333,94.004 208.748333,96.916 C208.748333,97.98 209.364333,98.652 210.260333,98.652 Z M219.008,111.14 C222.116,111.14 224.16,109.796 224.132,107.528 C224.076,102.656 215.928,104.896 215.928,101.424 C215.928,100.08 217.076,99.184 218.98,99.184 C220.884,99.184 222.284,100.08 222.284,101.648 C222.284,101.928 222.228,102.18 222.2,102.32 L223.768,102.18 L223.776736,102.135648 C223.79824,102.02096 223.852,101.6984 223.852,101.34 C223.852,99.184 221.864,97.756 219.036,97.756 C216.124,97.756 214.192,99.296 214.192,101.396 C214.192,106.156 222.424,104.252 222.424,107.528 C222.424,108.844 221.22,109.712 219.008,109.712 C216.572,109.712 215.032,108.424 214.668,108.088 L213.604,109.208 C214.108,109.628 215.704,111.14 219.008,111.14 Z M233.019667,111.14 C235.063667,111.14 236.883667,110.468 238.087667,108.984 L237.023667,108.004 C236.295667,108.9 235.035667,109.712 233.131667,109.712 C230.163667,109.712 228.287667,107.78 228.147667,104.812 L238.283667,104.812 C238.283667,104.812 238.367667,104.392 238.367667,103.692 C238.367667,100.22 236.211667,97.756 232.683667,97.756 C228.987667,97.756 226.411667,100.444 226.411667,104.476 C226.411667,108.48 228.959667,111.14 233.019667,111.14 Z M236.631667,103.552 L228.203667,103.552 C228.511667,100.92 230.275667,99.184 232.683667,99.184 C235.063667,99.184 236.631667,100.808 236.631667,103.44 L236.631667,103.552 Z M247.171333,111.14 C249.327333,111.14 251.147333,110.44 252.323333,109.068 L251.315333,108.004 C250.643333,108.76 249.439333,109.712 247.227333,109.712 C244.147333,109.712 242.299333,107.612 242.299333,104.476 C242.299333,101.284 244.203333,99.184 247.003333,99.184 C249.271333,99.184 250.643333,100.556 250.643333,102.432 C250.643333,102.768 250.615333,103.048 250.587333,103.132 L252.183333,103.02 C252.183333,103.02 252.267333,102.656 252.267333,102.18 C252.267333,99.66 250.223333,97.756 246.975333,97.756 C243.195333,97.756 240.591333,100.5 240.591333,104.504 C240.591333,108.452 243.167333,111.14 247.171333,111.14 Z M260.315,111.168 C262.331,111.168 263.619,110.244 263.619,110.244 L263.031,108.872 C263.031,108.872 262.051,109.684 260.455,109.684 C258.495,109.684 257.683,108.564 257.683,106.38 L257.683,99.296 L263.003,99.296 L263.003,97.896 L257.683,97.896 L257.683,93.808 L255.975,93.92 L255.975,97.896 L253.819,97.896 L253.819,99.296 L255.975,99.296 L255.975,106.436 C255.975,109.544 257.263,111.168 260.315,111.168 Z M266.570667,94.9 C267.298667,94.9 267.914667,94.34 267.914667,93.612 C267.914667,92.856 267.298667,92.296 266.570667,92.296 C265.842667,92.296 265.254667,92.856 265.254667,93.612 C265.254667,94.34 265.842667,94.9 266.570667,94.9 Z M267.382667,111 L267.382667,97.84 L265.674667,97.896 L265.674667,111 L267.382667,111 Z M277.054333,111.14 C280.974333,111.14 283.578333,108.452 283.578333,104.476 C283.578333,100.5 280.974333,97.756 277.054333,97.756 C273.134333,97.756 270.530333,100.5 270.530333,104.476 C270.530333,108.452 273.134333,111.14 277.054333,111.14 Z M277.054333,109.712 C274.170333,109.712 272.238333,107.584 272.238333,104.476 C272.238333,101.368 274.170333,99.184 277.054333,99.184 C279.938333,99.184 281.842333,101.368 281.842333,104.476 C281.842333,107.584 279.938333,109.712 277.054333,109.712 Z M288.406,111 L288.406,103.832 C288.406,101.872 289.918,99.184 292.914,99.184 C295.182,99.184 296.554,100.724 296.554,102.964 L296.554,111 L298.262,111 L298.262,102.964 C298.262,99.884 296.302,97.756 293.166,97.756 C290.534,97.756 288.91,99.38 288.21,101.172 L288.154,101.172 C288.154,100.332 288.07,98.932 287.902,97.84 L286.698,97.896 L286.698,111 L288.406,111 Z M301.717667,98.624 C301.717667,98.624 304.013667,97.084 304.013667,94.172 C304.013667,93.108 303.397667,92.436 302.529667,92.436 C301.689667,92.436 301.157667,92.94 301.157667,93.668 C301.157667,94.396 301.773667,94.872 302.501667,94.872 C302.501667,96.384 300.877667,97.616 300.877667,97.616 L301.717667,98.624 Z M305.693667,98.624 C305.693667,98.624 308.017667,97.084 308.017667,94.172 C308.017667,93.108 307.373667,92.436 306.505667,92.436 C305.665667,92.436 305.133667,92.94 305.133667,93.668 C305.133667,94.396 305.749667,94.872 306.505667,94.872 C306.477667,96.384 304.853667,97.616 304.853667,97.616 L305.693667,98.624 Z M310.549333,109.6 L319.201333,104.028 L319.201333,102.628 L310.549333,97.056 L310.549333,98.596 L317.689333,103.328 L310.549333,108.06 L310.549333,109.6 Z M329.349,109.6 L329.349,108.06 L322.209,103.328 L329.349,98.596 L329.349,97.056 L320.725,102.628 L320.725,104.028 L329.349,109.6 Z M333.084667,116.712 L340.868667,91.232 L339.160667,91.232 L331.376667,116.712 L333.084667,116.712 Z M347.852333,111.14 C350.540333,111.14 352.304333,109.6 353.004333,107.696 L353.032333,107.696 C353.004333,108.508 353.116333,109.992 353.228333,111.056 L354.460333,111 L354.460333,91.288 L352.780333,91.288 L352.780333,100.472 C351.968333,98.904 350.316333,97.728 347.936333,97.728 C344.212333,97.728 341.692333,100.416 341.692333,104.42 C341.692333,108.452 344.212333,111.14 347.852333,111.14 Z M348.132333,109.684 C345.276333,109.684 343.428333,107.584 343.428333,104.42 C343.428333,101.284 345.248333,99.184 348.020333,99.184 C351.240333,99.184 352.780333,101.816 352.780333,103.832 L352.780333,105.008 C352.780333,107.024 351.240333,109.684 348.132333,109.684 Z M359.4,94.9 C360.128,94.9 360.744,94.34 360.744,93.612 C360.744,92.856 360.128,92.296 359.4,92.296 C358.672,92.296 358.084,92.856 358.084,93.612 C358.084,94.34 358.672,94.9 359.4,94.9 Z M360.212,111 L360.212,97.84 L358.504,97.896 L358.504,111 L360.212,111 Z M370.023667,111 L375.483667,97.896 L373.747667,97.896 L369.435667,108.34 C369.295667,108.704 369.239667,108.9 369.155667,109.292 L369.099667,109.292 C369.015667,108.928 368.959667,108.76 368.791667,108.34 L364.535667,97.896 L362.631667,97.896 L368.091667,111 L370.023667,111 Z M377.343333,109.6 L385.995333,104.028 L385.995333,102.628 L377.343333,97.056 L377.343333,98.596 L384.483333,103.328 L377.343333,108.06 L377.343333,109.6 Z M87.604,149.6 L87.604,148.06 L80.464,143.328 L87.604,138.596 L87.604,137.056 L78.98,142.628 L78.98,144.028 L87.604,149.6 Z M96.3236667,151.14 C99.0116667,151.14 100.775667,149.6 101.475667,147.696 L101.503667,147.696 C101.475667,148.508 101.587667,149.992 101.699667,151.056 L102.931667,151 L102.931667,131.288 L101.251667,131.288 L101.251667,140.472 C100.439667,138.904 98.7876667,137.728 96.4076667,137.728 C92.6836667,137.728 90.1636667,140.416 90.1636667,144.42 C90.1636667,148.452 92.6836667,151.14 96.3236667,151.14 Z M96.6036667,149.684 C93.7476667,149.684 91.8996667,147.584 91.8996667,144.42 C91.8996667,141.284 93.7196667,139.184 96.4916667,139.184 C99.7116667,139.184 101.251667,141.816 101.251667,143.832 L101.251667,145.008 C101.251667,147.024 99.7116667,149.684 96.6036667,149.684 Z M107.871333,134.9 C108.599333,134.9 109.215333,134.34 109.215333,133.612 C109.215333,132.856 108.599333,132.296 107.871333,132.296 C107.143333,132.296 106.555333,132.856 106.555333,133.612 C106.555333,134.34 107.143333,134.9 107.871333,134.9 Z M108.683333,151 L108.683333,137.84 L106.975333,137.896 L106.975333,151 L108.683333,151 Z M118.495,151 L123.955,137.896 L122.219,137.896 L117.907,148.34 C117.767,148.704 117.711,148.9 117.627,149.292 L117.571,149.292 C117.487,148.928 117.431,148.76 117.263,148.34 L113.007,137.896 L111.103,137.896 L116.563,151 L118.495,151 Z M137.922333,151.14 C140.078333,151.14 141.898333,150.44 143.074333,149.068 L142.066333,148.004 C141.394333,148.76 140.190333,149.712 137.978333,149.712 C134.898333,149.712 133.050333,147.612 133.050333,144.476 C133.050333,141.284 134.954333,139.184 137.754333,139.184 C140.022333,139.184 141.394333,140.556 141.394333,142.432 C141.394333,142.768 141.366333,143.048 141.338333,143.132 L142.934333,143.02 C142.934333,143.02 143.018333,142.656 143.018333,142.18 C143.018333,139.66 140.974333,137.756 137.726333,137.756 C133.946333,137.756 131.342333,140.5 131.342333,144.504 C131.342333,148.452 133.918333,151.14 137.922333,151.14 Z M147.874,151 L147.874,131.232 L146.194,131.232 L146.194,151 L147.874,151 Z M162.361667,151.14 C162.893667,151.14 163.369667,151 163.397667,151 L163.313667,149.572 C163.201667,149.6 163.005667,149.628 162.837667,149.628 C162.221667,149.628 161.969667,149.32 161.969667,148.564 L161.969667,142.6 C161.969667,139.632 159.925667,137.756 156.565667,137.756 C153.429667,137.756 151.385667,139.408 151.385667,141.788 C151.385667,142.432 151.553667,142.908 151.553667,142.908 L153.149667,142.628 C153.093667,142.516 153.009667,142.264 153.009667,141.872 C153.009667,140.192 154.409667,139.184 156.537667,139.184 C158.917667,139.184 160.261667,140.528 160.261667,142.628 L160.261667,143.636 L159.449667,143.664 C154.073667,143.72 151.049667,144.728 151.049667,147.668 C151.049667,149.768 152.589667,151.14 155.361667,151.14 C158.469667,151.14 159.841667,149.488 160.317667,148.508 L160.373667,148.508 L160.373667,149.18 C160.373667,150.58 161.213667,151.14 162.361667,151.14 Z M155.725667,149.712 C153.737667,149.712 152.785667,148.9 152.785667,147.612 C152.785667,145.68 155.053667,144.952 159.449667,144.896 L160.261667,144.868 L160.261667,146.576 C160.261667,147.416 158.973667,149.712 155.725667,149.712 Z M170.409333,151.14 C173.517333,151.14 175.561333,149.796 175.533333,147.528 C175.477333,142.656 167.329333,144.896 167.329333,141.424 C167.329333,140.08 168.477333,139.184 170.381333,139.184 C172.285333,139.184 173.685333,140.08 173.685333,141.648 C173.685333,141.928 173.629333,142.18 173.601333,142.32 L175.169333,142.18 C175.169333,142.18 175.253333,141.788 175.253333,141.34 C175.253333,139.184 173.265333,137.756 170.437333,137.756 C167.525333,137.756 165.593333,139.296 165.593333,141.396 C165.593333,146.156 173.825333,144.252 173.825333,147.528 C173.825333,148.844 172.621333,149.712 170.409333,149.712 C167.973333,149.712 166.433333,148.424 166.069333,148.088 L165.005333,149.208 C165.509333,149.628 167.105333,151.14 170.409333,151.14 Z M182.881,151.14 C185.989,151.14 188.033,149.796 188.005,147.528 C187.949,142.656 179.801,144.896 179.801,141.424 C179.801,140.08 180.949,139.184 182.853,139.184 C184.757,139.184 186.157,140.08 186.157,141.648 C186.157,141.928 186.101,142.18 186.073,142.32 L187.641,142.18 L187.649736,142.135648 C187.67124,142.02096 187.725,141.6984 187.725,141.34 C187.725,139.184 185.737,137.756 182.909,137.756 C179.997,137.756 178.065,139.296 178.065,141.396 C178.065,146.156 186.297,144.252 186.297,147.528 C186.297,148.844 185.093,149.712 182.881,149.712 C180.445,149.712 178.905,148.424 178.541,148.088 L177.477,149.208 C177.981,149.628 179.577,151.14 182.881,151.14 Z M201.680667,141.956 L201.680667,140.668 L190.956667,140.668 L190.956667,141.956 L201.680667,141.956 Z M201.680667,147.304 L201.680667,146.016 L190.956667,146.016 L190.956667,147.304 L201.680667,147.304 Z M206.284333,138.652 C207.096333,138.652 207.628333,138.148 207.628333,137.42 C207.628333,136.692 207.012333,136.216 206.284333,136.216 C206.284333,134.704 207.908333,133.472 207.908333,133.472 L207.068333,132.464 C207.068333,132.464 204.772333,134.004 204.772333,136.916 C204.772333,137.98 205.388333,138.652 206.284333,138.652 Z M210.260333,138.652 C211.072333,138.652 211.604333,138.148 211.604333,137.42 C211.604333,136.692 210.988333,136.216 210.260333,136.216 C210.260333,134.704 211.884333,133.472 211.884333,133.472 L211.044333,132.464 C211.044333,132.464 208.748333,134.004 208.748333,136.916 C208.748333,137.98 209.364333,138.652 210.260333,138.652 Z M219.008,151.14 C222.116,151.14 224.16,149.796 224.132,147.528 C224.076,142.656 215.928,144.896 215.928,141.424 C215.928,140.08 217.076,139.184 218.98,139.184 C220.884,139.184 222.284,140.08 222.284,141.648 C222.284,141.928 222.228,142.18 222.2,142.32 L223.768,142.18 L223.776736,142.135648 C223.79824,142.02096 223.852,141.6984 223.852,141.34 C223.852,139.184 221.864,137.756 219.036,137.756 C216.124,137.756 214.192,139.296 214.192,141.396 C214.192,146.156 222.424,144.252 222.424,147.528 C222.424,148.844 221.22,149.712 219.008,149.712 C216.572,149.712 215.032,148.424 214.668,148.088 L213.604,149.208 C214.108,149.628 215.704,151.14 219.008,151.14 Z M233.019667,151.14 C235.063667,151.14 236.883667,150.468 238.087667,148.984 L237.023667,148.004 C236.295667,148.9 235.035667,149.712 233.131667,149.712 C230.163667,149.712 228.287667,147.78 228.147667,144.812 L238.283667,144.812 C238.283667,144.812 238.367667,144.392 238.367667,143.692 C238.367667,140.22 236.211667,137.756 232.683667,137.756 C228.987667,137.756 226.411667,140.444 226.411667,144.476 C226.411667,148.48 228.959667,151.14 233.019667,151.14 Z M236.631667,143.552 L228.203667,143.552 C228.511667,140.92 230.275667,139.184 232.683667,139.184 C235.063667,139.184 236.631667,140.808 236.631667,143.44 L236.631667,143.552 Z M247.171333,151.14 C249.327333,151.14 251.147333,150.44 252.323333,149.068 L251.315333,148.004 C250.643333,148.76 249.439333,149.712 247.227333,149.712 C244.147333,149.712 242.299333,147.612 242.299333,144.476 C242.299333,141.284 244.203333,139.184 247.003333,139.184 C249.271333,139.184 250.643333,140.556 250.643333,142.432 C250.643333,142.768 250.615333,143.048 250.587333,143.132 L252.183333,143.02 C252.183333,143.02 252.267333,142.656 252.267333,142.18 C252.267333,139.66 250.223333,137.756 246.975333,137.756 C243.195333,137.756 240.591333,140.5 240.591333,144.504 C240.591333,148.452 243.167333,151.14 247.171333,151.14 Z M260.315,151.168 C262.331,151.168 263.619,150.244 263.619,150.244 L263.031,148.872 C263.031,148.872 262.051,149.684 260.455,149.684 C258.495,149.684 257.683,148.564 257.683,146.38 L257.683,139.296 L263.003,139.296 L263.003,137.896 L257.683,137.896 L257.683,133.808 L255.975,133.92 L255.975,137.896 L253.819,137.896 L253.819,139.296 L255.975,139.296 L255.975,146.436 C255.975,149.544 257.263,151.168 260.315,151.168 Z M266.570667,134.9 C267.298667,134.9 267.914667,134.34 267.914667,133.612 C267.914667,132.856 267.298667,132.296 266.570667,132.296 C265.842667,132.296 265.254667,132.856 265.254667,133.612 C265.254667,134.34 265.842667,134.9 266.570667,134.9 Z M267.382667,151 L267.382667,137.84 L265.674667,137.896 L265.674667,151 L267.382667,151 Z M277.054333,151.14 C280.974333,151.14 283.578333,148.452 283.578333,144.476 C283.578333,140.5 280.974333,137.756 277.054333,137.756 C273.134333,137.756 270.530333,140.5 270.530333,144.476 C270.530333,148.452 273.134333,151.14 277.054333,151.14 Z M277.054333,149.712 C274.170333,149.712 272.238333,147.584 272.238333,144.476 C272.238333,141.368 274.170333,139.184 277.054333,139.184 C279.938333,139.184 281.842333,141.368 281.842333,144.476 C281.842333,147.584 279.938333,149.712 277.054333,149.712 Z M288.406,151 L288.406,143.832 C288.406,141.872 289.918,139.184 292.914,139.184 C295.182,139.184 296.554,140.724 296.554,142.964 L296.554,151 L298.262,151 L298.262,142.964 C298.262,139.884 296.302,137.756 293.166,137.756 C290.534,137.756 288.91,139.38 288.21,141.172 L288.154,141.172 C288.154,140.332 288.07,138.932 287.902,137.84 L286.698,137.896 L286.698,151 L288.406,151 Z M301.717667,138.624 C301.717667,138.624 304.013667,137.084 304.013667,134.172 C304.013667,133.108 303.397667,132.436 302.529667,132.436 C301.689667,132.436 301.157667,132.94 301.157667,133.668 C301.157667,134.396 301.773667,134.872 302.501667,134.872 C302.501667,136.384 300.877667,137.616 300.877667,137.616 L301.717667,138.624 Z M305.693667,138.624 C305.693667,138.624 308.017667,137.084 308.017667,134.172 C308.017667,133.108 307.373667,132.436 306.505667,132.436 C305.665667,132.436 305.133667,132.94 305.133667,133.668 C305.133667,134.396 305.749667,134.872 306.505667,134.872 C306.477667,136.384 304.853667,137.616 304.853667,137.616 L305.693667,138.624 Z M310.549333,149.6 L319.201333,144.028 L319.201333,142.628 L310.549333,137.056 L310.549333,138.596 L317.689333,143.328 L310.549333,148.06 L310.549333,149.6 Z M329.349,149.6 L329.349,148.06 L322.209,143.328 L329.349,138.596 L329.349,137.056 L320.725,142.628 L320.725,144.028 L329.349,149.6 Z M333.084667,156.712 L340.868667,131.232 L339.160667,131.232 L331.376667,156.712 L333.084667,156.712 Z M347.852333,151.14 C350.540333,151.14 352.304333,149.6 353.004333,147.696 L353.032333,147.696 C353.004333,148.508 353.116333,149.992 353.228333,151.056 L354.460333,151 L354.460333,131.288 L352.780333,131.288 L352.780333,140.472 C351.968333,138.904 350.316333,137.728 347.936333,137.728 C344.212333,137.728 341.692333,140.416 341.692333,144.42 C341.692333,148.452 344.212333,151.14 347.852333,151.14 Z M348.132333,149.684 C345.276333,149.684 343.428333,147.584 343.428333,144.42 C343.428333,141.284 345.248333,139.184 348.020333,139.184 C351.240333,139.184 352.780333,141.816 352.780333,143.832 L352.780333,145.008 C352.780333,147.024 351.240333,149.684 348.132333,149.684 Z M359.4,134.9 C360.128,134.9 360.744,134.34 360.744,133.612 C360.744,132.856 360.128,132.296 359.4,132.296 C358.672,132.296 358.084,132.856 358.084,133.612 C358.084,134.34 358.672,134.9 359.4,134.9 Z M360.212,151 L360.212,137.84 L358.504,137.896 L358.504,151 L360.212,151 Z M370.023667,151 L375.483667,137.896 L373.747667,137.896 L369.435667,148.34 C369.295667,148.704 369.239667,148.9 369.155667,149.292 L369.099667,149.292 C369.015667,148.928 368.959667,148.76 368.791667,148.34 L364.535667,137.896 L362.631667,137.896 L368.091667,151 L370.023667,151 Z M377.343333,149.6 L385.995333,144.028 L385.995333,142.628 L377.343333,137.056 L377.343333,138.596 L384.483333,143.328 L377.343333,148.06 L377.343333,149.6 Z M87.604,189.6 L87.604,188.06 L80.464,183.328 L87.604,178.596 L87.604,177.056 L78.98,182.628 L78.98,184.028 L87.604,189.6 Z M96.3236667,191.14 C99.0116667,191.14 100.775667,189.6 101.475667,187.696 L101.503667,187.696 C101.475667,188.508 101.587667,189.992 101.699667,191.056 L102.931667,191 L102.931667,171.288 L101.251667,171.288 L101.251667,180.472 C100.439667,178.904 98.7876667,177.728 96.4076667,177.728 C92.6836667,177.728 90.1636667,180.416 90.1636667,184.42 C90.1636667,188.452 92.6836667,191.14 96.3236667,191.14 Z M96.6036667,189.684 C93.7476667,189.684 91.8996667,187.584 91.8996667,184.42 C91.8996667,181.284 93.7196667,179.184 96.4916667,179.184 C99.7116667,179.184 101.251667,181.816 101.251667,183.832 L101.251667,185.008 C101.251667,187.024 99.7116667,189.684 96.6036667,189.684 Z M107.871333,174.9 C108.599333,174.9 109.215333,174.34 109.215333,173.612 C109.215333,172.856 108.599333,172.296 107.871333,172.296 C107.143333,172.296 106.555333,172.856 106.555333,173.612 C106.555333,174.34 107.143333,174.9 107.871333,174.9 Z M108.683333,191 L108.683333,177.84 L106.975333,177.896 L106.975333,191 L108.683333,191 Z M118.495,191 L123.955,177.896 L122.219,177.896 L117.907,188.34 C117.767,188.704 117.711,188.9 117.627,189.292 L117.571,189.292 C117.487,188.928 117.431,188.76 117.263,188.34 L113.007,177.896 L111.103,177.896 L116.563,191 L118.495,191 Z M137.922333,191.14 C140.078333,191.14 141.898333,190.44 143.074333,189.068 L142.066333,188.004 C141.394333,188.76 140.190333,189.712 137.978333,189.712 C134.898333,189.712 133.050333,187.612 133.050333,184.476 C133.050333,181.284 134.954333,179.184 137.754333,179.184 C140.022333,179.184 141.394333,180.556 141.394333,182.432 C141.394333,182.768 141.366333,183.048 141.338333,183.132 L142.934333,183.02 C142.934333,183.02 143.018333,182.656 143.018333,182.18 C143.018333,179.66 140.974333,177.756 137.726333,177.756 C133.946333,177.756 131.342333,180.5 131.342333,184.504 C131.342333,188.452 133.918333,191.14 137.922333,191.14 Z M147.874,191 L147.874,171.232 L146.194,171.232 L146.194,191 L147.874,191 Z M162.361667,191.14 C162.893667,191.14 163.369667,191 163.397667,191 L163.313667,189.572 C163.201667,189.6 163.005667,189.628 162.837667,189.628 C162.221667,189.628 161.969667,189.32 161.969667,188.564 L161.969667,182.6 C161.969667,179.632 159.925667,177.756 156.565667,177.756 C153.429667,177.756 151.385667,179.408 151.385667,181.788 C151.385667,182.432 151.553667,182.908 151.553667,182.908 L153.149667,182.628 C153.093667,182.516 153.009667,182.264 153.009667,181.872 C153.009667,180.192 154.409667,179.184 156.537667,179.184 C158.917667,179.184 160.261667,180.528 160.261667,182.628 L160.261667,183.636 L159.449667,183.664 C154.073667,183.72 151.049667,184.728 151.049667,187.668 C151.049667,189.768 152.589667,191.14 155.361667,191.14 C158.469667,191.14 159.841667,189.488 160.317667,188.508 L160.373667,188.508 L160.373667,189.18 C160.373667,190.58 161.213667,191.14 162.361667,191.14 Z M155.725667,189.712 C153.737667,189.712 152.785667,188.9 152.785667,187.612 C152.785667,185.68 155.053667,184.952 159.449667,184.896 L160.261667,184.868 L160.261667,186.576 C160.261667,187.416 158.973667,189.712 155.725667,189.712 Z M170.409333,191.14 C173.517333,191.14 175.561333,189.796 175.533333,187.528 C175.477333,182.656 167.329333,184.896 167.329333,181.424 C167.329333,180.08 168.477333,179.184 170.381333,179.184 C172.285333,179.184 173.685333,180.08 173.685333,181.648 C173.685333,181.928 173.629333,182.18 173.601333,182.32 L175.169333,182.18 C175.169333,182.18 175.253333,181.788 175.253333,181.34 C175.253333,179.184 173.265333,177.756 170.437333,177.756 C167.525333,177.756 165.593333,179.296 165.593333,181.396 C165.593333,186.156 173.825333,184.252 173.825333,187.528 C173.825333,188.844 172.621333,189.712 170.409333,189.712 C167.973333,189.712 166.433333,188.424 166.069333,188.088 L165.005333,189.208 C165.509333,189.628 167.105333,191.14 170.409333,191.14 Z M182.881,191.14 C185.989,191.14 188.033,189.796 188.005,187.528 C187.949,182.656 179.801,184.896 179.801,181.424 C179.801,180.08 180.949,179.184 182.853,179.184 C184.757,179.184 186.157,180.08 186.157,181.648 C186.157,181.928 186.101,182.18 186.073,182.32 L187.641,182.18 L187.649736,182.135648 C187.67124,182.02096 187.725,181.6984 187.725,181.34 C187.725,179.184 185.737,177.756 182.909,177.756 C179.997,177.756 178.065,179.296 178.065,181.396 C178.065,186.156 186.297,184.252 186.297,187.528 C186.297,188.844 185.093,189.712 182.881,189.712 C180.445,189.712 178.905,188.424 178.541,188.088 L177.477,189.208 C177.981,189.628 179.577,191.14 182.881,191.14 Z M201.680667,181.956 L201.680667,180.668 L190.956667,180.668 L190.956667,181.956 L201.680667,181.956 Z M201.680667,187.304 L201.680667,186.016 L190.956667,186.016 L190.956667,187.304 L201.680667,187.304 Z M206.284333,178.652 C207.096333,178.652 207.628333,178.148 207.628333,177.42 C207.628333,176.692 207.012333,176.216 206.284333,176.216 C206.284333,174.704 207.908333,173.472 207.908333,173.472 L207.068333,172.464 C207.068333,172.464 204.772333,174.004 204.772333,176.916 C204.772333,177.98 205.388333,178.652 206.284333,178.652 Z M210.260333,178.652 C211.072333,178.652 211.604333,178.148 211.604333,177.42 C211.604333,176.692 210.988333,176.216 210.260333,176.216 C210.260333,174.704 211.884333,173.472 211.884333,173.472 L211.044333,172.464 C211.044333,172.464 208.748333,174.004 208.748333,176.916 C208.748333,177.98 209.364333,178.652 210.260333,178.652 Z M219.008,191.14 C222.116,191.14 224.16,189.796 224.132,187.528 C224.076,182.656 215.928,184.896 215.928,181.424 C215.928,180.08 217.076,179.184 218.98,179.184 C220.884,179.184 222.284,180.08 222.284,181.648 C222.284,181.928 222.228,182.18 222.2,182.32 L223.768,182.18 L223.776736,182.135648 C223.79824,182.02096 223.852,181.6984 223.852,181.34 C223.852,179.184 221.864,177.756 219.036,177.756 C216.124,177.756 214.192,179.296 214.192,181.396 C214.192,186.156 222.424,184.252 222.424,187.528 C222.424,188.844 221.22,189.712 219.008,189.712 C216.572,189.712 215.032,188.424 214.668,188.088 L213.604,189.208 C214.108,189.628 215.704,191.14 219.008,191.14 Z M233.019667,191.14 C235.063667,191.14 236.883667,190.468 238.087667,188.984 L237.023667,188.004 C236.295667,188.9 235.035667,189.712 233.131667,189.712 C230.163667,189.712 228.287667,187.78 228.147667,184.812 L238.283667,184.812 C238.283667,184.812 238.367667,184.392 238.367667,183.692 C238.367667,180.22 236.211667,177.756 232.683667,177.756 C228.987667,177.756 226.411667,180.444 226.411667,184.476 C226.411667,188.48 228.959667,191.14 233.019667,191.14 Z M236.631667,183.552 L228.203667,183.552 C228.511667,180.92 230.275667,179.184 232.683667,179.184 C235.063667,179.184 236.631667,180.808 236.631667,183.44 L236.631667,183.552 Z M247.171333,191.14 C249.327333,191.14 251.147333,190.44 252.323333,189.068 L251.315333,188.004 C250.643333,188.76 249.439333,189.712 247.227333,189.712 C244.147333,189.712 242.299333,187.612 242.299333,184.476 C242.299333,181.284 244.203333,179.184 247.003333,179.184 C249.271333,179.184 250.643333,180.556 250.643333,182.432 C250.643333,182.768 250.615333,183.048 250.587333,183.132 L252.183333,183.02 C252.183333,183.02 252.267333,182.656 252.267333,182.18 C252.267333,179.66 250.223333,177.756 246.975333,177.756 C243.195333,177.756 240.591333,180.5 240.591333,184.504 C240.591333,188.452 243.167333,191.14 247.171333,191.14 Z M260.315,191.168 C262.331,191.168 263.619,190.244 263.619,190.244 L263.031,188.872 C263.031,188.872 262.051,189.684 260.455,189.684 C258.495,189.684 257.683,188.564 257.683,186.38 L257.683,179.296 L263.003,179.296 L263.003,177.896 L257.683,177.896 L257.683,173.808 L255.975,173.92 L255.975,177.896 L253.819,177.896 L253.819,179.296 L255.975,179.296 L255.975,186.436 C255.975,189.544 257.263,191.168 260.315,191.168 Z M266.570667,174.9 C267.298667,174.9 267.914667,174.34 267.914667,173.612 C267.914667,172.856 267.298667,172.296 266.570667,172.296 C265.842667,172.296 265.254667,172.856 265.254667,173.612 C265.254667,174.34 265.842667,174.9 266.570667,174.9 Z M267.382667,191 L267.382667,177.84 L265.674667,177.896 L265.674667,191 L267.382667,191 Z M277.054333,191.14 C280.974333,191.14 283.578333,188.452 283.578333,184.476 C283.578333,180.5 280.974333,177.756 277.054333,177.756 C273.134333,177.756 270.530333,180.5 270.530333,184.476 C270.530333,188.452 273.134333,191.14 277.054333,191.14 Z M277.054333,189.712 C274.170333,189.712 272.238333,187.584 272.238333,184.476 C272.238333,181.368 274.170333,179.184 277.054333,179.184 C279.938333,179.184 281.842333,181.368 281.842333,184.476 C281.842333,187.584 279.938333,189.712 277.054333,189.712 Z M288.406,191 L288.406,183.832 C288.406,181.872 289.918,179.184 292.914,179.184 C295.182,179.184 296.554,180.724 296.554,182.964 L296.554,191 L298.262,191 L298.262,182.964 C298.262,179.884 296.302,177.756 293.166,177.756 C290.534,177.756 288.91,179.38 288.21,181.172 L288.154,181.172 C288.154,180.332 288.07,178.932 287.902,177.84 L286.698,177.896 L286.698,191 L288.406,191 Z M301.717667,178.624 C301.717667,178.624 304.013667,177.084 304.013667,174.172 C304.013667,173.108 303.397667,172.436 302.529667,172.436 C301.689667,172.436 301.157667,172.94 301.157667,173.668 C301.157667,174.396 301.773667,174.872 302.501667,174.872 C302.501667,176.384 300.877667,177.616 300.877667,177.616 L301.717667,178.624 Z M305.693667,178.624 C305.693667,178.624 308.017667,177.084 308.017667,174.172 C308.017667,173.108 307.373667,172.436 306.505667,172.436 C305.665667,172.436 305.133667,172.94 305.133667,173.668 C305.133667,174.396 305.749667,174.872 306.505667,174.872 C306.477667,176.384 304.853667,177.616 304.853667,177.616 L305.693667,178.624 Z M310.549333,189.6 L319.201333,184.028 L319.201333,182.628 L310.549333,177.056 L310.549333,178.596 L317.689333,183.328 L310.549333,188.06 L310.549333,189.6 Z M329.349,189.6 L329.349,188.06 L322.209,183.328 L329.349,178.596 L329.349,177.056 L320.725,182.628 L320.725,184.028 L329.349,189.6 Z M333.084667,196.712 L340.868667,171.232 L339.160667,171.232 L331.376667,196.712 L333.084667,196.712 Z M347.852333,191.14 C350.540333,191.14 352.304333,189.6 353.004333,187.696 L353.032333,187.696 C353.004333,188.508 353.116333,189.992 353.228333,191.056 L354.460333,191 L354.460333,171.288 L352.780333,171.288 L352.780333,180.472 C351.968333,178.904 350.316333,177.728 347.936333,177.728 C344.212333,177.728 341.692333,180.416 341.692333,184.42 C341.692333,188.452 344.212333,191.14 347.852333,191.14 Z M348.132333,189.684 C345.276333,189.684 343.428333,187.584 343.428333,184.42 C343.428333,181.284 345.248333,179.184 348.020333,179.184 C351.240333,179.184 352.780333,181.816 352.780333,183.832 L352.780333,185.008 C352.780333,187.024 351.240333,189.684 348.132333,189.684 Z M359.4,174.9 C360.128,174.9 360.744,174.34 360.744,173.612 C360.744,172.856 360.128,172.296 359.4,172.296 C358.672,172.296 358.084,172.856 358.084,173.612 C358.084,174.34 358.672,174.9 359.4,174.9 Z M360.212,191 L360.212,177.84 L358.504,177.896 L358.504,191 L360.212,191 Z M370.023667,191 L375.483667,177.896 L373.747667,177.896 L369.435667,188.34 C369.295667,188.704 369.239667,188.9 369.155667,189.292 L369.099667,189.292 C369.015667,188.928 368.959667,188.76 368.791667,188.34 L364.535667,177.896 L362.631667,177.896 L368.091667,191 L370.023667,191 Z M377.343333,189.6 L385.995333,184.028 L385.995333,182.628 L377.343333,177.056 L377.343333,178.596 L384.483333,183.328 L377.343333,188.06 L377.343333,189.6 Z M59.604,229.6 L59.604,228.06 L52.464,223.328 L59.604,218.596 L59.604,217.056 L50.98,222.628 L50.98,224.028 L59.604,229.6 Z M63.3396667,236.712 L71.1236667,211.232 L69.4156667,211.232 L61.6316667,236.712 L63.3396667,236.712 Z M78.1073333,231.14 C80.7953333,231.14 82.5593333,229.6 83.2593333,227.696 L83.2873333,227.696 C83.2593333,228.508 83.3713333,229.992 83.4833333,231.056 L84.7153333,231 L84.7153333,211.288 L83.0353333,211.288 L83.0353333,220.472 C82.2233333,218.904 80.5713333,217.728 78.1913333,217.728 C74.4673333,217.728 71.9473333,220.416 71.9473333,224.42 C71.9473333,228.452 74.4673333,231.14 78.1073333,231.14 Z M78.3873333,229.684 C75.5313333,229.684 73.6833333,227.584 73.6833333,224.42 C73.6833333,221.284 75.5033333,219.184 78.2753333,219.184 C81.4953333,219.184 83.0353333,221.816 83.0353333,223.832 L83.0353333,225.008 C83.0353333,227.024 81.4953333,229.684 78.3873333,229.684 Z M89.655,214.9 C90.383,214.9 90.999,214.34 90.999,213.612 C90.999,212.856 90.383,212.296 89.655,212.296 C88.927,212.296 88.339,212.856 88.339,213.612 C88.339,214.34 88.927,214.9 89.655,214.9 Z M90.467,231 L90.467,217.84 L88.759,217.896 L88.759,231 L90.467,231 Z M100.278667,231 L105.738667,217.896 L104.002667,217.896 L99.6906667,228.34 C99.5506667,228.704 99.4946667,228.9 99.4106667,229.292 L99.3546667,229.292 C99.2706667,228.928 99.2146667,228.76 99.0466667,228.34 L94.7906667,217.896 L92.8866667,217.896 L98.3466667,231 L100.278667,231 Z M107.598333,229.6 L116.250333,224.028 L116.250333,222.628 L107.598333,217.056 L107.598333,218.596 L114.738333,223.328 L107.598333,228.06 L107.598333,229.6 Z" id="&lt;divid=“pagepiling”&gt;&lt;divclass=“section”&gt;&lt;/div&gt;&lt;divclass=“section”&gt;&lt;/div&gt;&lt;divclass=“section”&gt;&lt;/div&gt;&lt;/div&gt;" fill="#011627" fill-rule="nonzero"></path>
            </g>
        </g>
    </g>
</svg>